<?xml version="1.0" encoding="UTF-8"?>
<svg id="Layer_2" data-name="Layer 2" xmlns="http://www.w3.org/2000/svg" viewBox="0 0 1000 1000">
  <defs>
    <style>
      .cls-1 {
        fill: #fff;
        stroke: #fff;
        stroke-miterlimit: 10;
        stroke-width: 10px;
      }

      .cls-2 {
        stroke-width: 0px;
      }
    </style>
  </defs>
  <g id="Layer_1-2" data-name="Layer 1">
    <circle class="cls-2" cx="500" cy="500" r="500"/>
  </g>
  <g id="Ebene_2" data-name="Ebene 2">
    <path class="cls-1" d="m491.81,476.51v-44.14c-3.05-.68-6.05-1.42-9.08-2.01-31.63-6.12-50.21-41.39-37-71.42,5.34-12.14,11.93-23.74,18.07-35.53,10.15-19.48,19.61-39.23,24.74-60.74,3.9-16.34,4.97-32.68-.5-48.94-.76-2.26-.44-4.13,1.84-5.1,2.25-.96,3.9.01,5.05,2.1,11.94,21.58,19.51,44.15,17.33,69.35-1,11.56-1.4,23.23-1.17,34.82.33,16.26,6.42,31.11,13.12,45.61,2.5,5.4,5.96,10.37,9.13,15.45,4.2,6.73,6.81,13.95,7.33,21.91,1,15.27-5.44,25.02-20.42,31.62-6.18,2.72-13.38,3.13-20.58,4.69v43.42c7.79.55,15.53,1,23.25,1.67,40.63,3.5,81.13,8.01,120.73,18.16,9.9,2.54,19.62,6.34,28.89,10.71,16.51,7.79,25.71,21.57,27.13,39.57.86,10.89-.24,21.97-.9,32.94-1.96,32.67-4.99,65.31-4.11,98.07.49,18.18,2.34,36.33,3.75,54.49.69,8.88-2.03,16.27-8.63,22.23-6.73,6.07-14.81,9.69-23.23,12.59-23.75,8.17-48.19,13.51-73,17.23-34.84,5.22-69.93,7.27-105.08,6.19-33.17-1.02-66.32-3.2-99.42-5.64-16.13-1.19-31.35-6.42-45.48-14.63-14.37-8.34-22.51-19.85-24.03-37.06-2.31-26.25-6.7-52.32-9.45-78.54-3.2-30.51-5.68-61.11-8.3-91.68-.85-9.91-1.18-19.86-1.73-29.79-.64-11.71,3.7-21.3,12.52-28.88,10.33-8.88,22.73-13.63,35.58-17.32,20.85-5.98,42.25-8.77,63.82-9.93,18.31-.98,36.67-1.09,55.01-1.46,8.13-.16,16.27-.03,24.82-.03Zm200.24,93.72c-11.36,9.24-23.71,14.73-36.51,19.25-38.61,13.64-78.73,19.55-119.31,22.95-27.87,2.33-55.8,2.74-83.75,1.84-24.35-.79-48.63-2.41-72.49-7.62-27.19-5.94-52.99-14.61-70.37-39.32,0,1.64-.09,2.79.01,3.92,2.24,25.19,4.11,50.43,6.85,75.57,3.12,28.71,7.62,57.28,10.3,86.03,1.46,15.59,8.86,25.62,22.02,32.83,17.46,9.57,36.39,13.19,55.9,14.52,18.53,1.26,37.09,2.32,55.64,3.15,29,1.3,58.01,1.28,87-.6,38.53-2.5,76.42-8.6,113.24-20.51,9.26-3,18.37-6.4,25.43-13.57,3.63-3.69,5.42-8.08,5.03-13.33-1.34-18.04-3.76-36.09-3.7-54.12.1-28.03,1.87-56.05,3.03-84.07.36-8.7,1.07-17.39,1.67-26.91Zm-200.4-85.61c-1.35-.1-2.53-.21-3.7-.26-25.54-1.01-51.08-1.05-76.59.82-21.78,1.59-43.44,4.18-64.41,10.68-11.16,3.46-21.95,7.77-30.69,15.91-4.79,4.46-8.37,9.77-8.69,16.46-1.01,21.41,6.57,38.94,24.19,51.66,12.05,8.7,25.72,13.77,39.96,17.44,28.05,7.23,56.76,9.19,85.55,9.93,45.41,1.16,90.63-1.23,135.44-9.2,24.69-4.39,49.06-10.01,72.16-20.11,8.69-3.8,17.15-8.03,23.96-14.92,2.85-2.88,4.53-6.17,4.24-10.27-1.05-14.72-6.08-27.25-19.18-35.53-9.03-5.71-18.88-9.41-29.11-12.05-43.35-11.19-87.66-15.95-132.16-19.4-4.37-.34-8.75-.53-13.47-.81,0,1.93.03,3.35,0,4.77-.47,20.14-.97,40.28-1.42,60.42-.06,2.59-1.08,4.2-3.82,4.1-2.82-.1-3.57-2.01-3.51-4.45.41-14.74.89-29.48,1.21-44.22.15-6.92.03-13.84.03-20.95Zm8.16-245.14c-1.39,8.47-2.33,16.94-4.21,25.19-5.13,22.49-15.23,43.01-25.8,63.33-6.07,11.67-12.65,23.15-17.76,35.24-10.7,25.3,6.32,54.18,30.63,59.54,10.74,2.37,21.5,4.68,32.22.96,11.98-4.16,20.05-12.38,18.25-27.14-1.02-8.35-5.19-15.01-9.42-21.85-10.61-17.13-18.17-35.6-19.52-55.73-.99-14.74.34-29.65.87-44.48.43-12.09-1.18-23.78-5.26-35.06Z"/>
  </g>
</svg>